<svg xmlns="http://www.w3.org/2000/svg" width="61.583" height="78.437" viewBox="0 0 61.583 78.437">
    <defs>
        <linearGradient id="7k5vfs1awa" x1=".5" x2=".5" y2="1" gradientUnits="objectBoundingBox">
            <stop offset="0" stop-color="#b29bff"/>
            <stop offset="1" stop-color="#5927ff"/>
        </linearGradient>
        <linearGradient id="ama93ippvb" x1=".067" y1=".05" x2=".833" y2="1.105" gradientUnits="objectBoundingBox">
            <stop offset="0" stop-color="#4624ff"/>
            <stop offset="1" stop-color="#cabaff"/>
        </linearGradient>
    </defs>
    <g data-name="Group 118" transform="translate(-170 -179.563)">
        <path data-name="Union 2" d="M0 48.488V10.39A10.39 10.39 0 0 1 10.39 0h13.854a24.215 24.215 0 0 1 19.764 10.2h17.575L48.456 23q.032.621.032 1.25a24.244 24.244 0 0 1-24.244 24.238z" transform="translate(170 179.563)" style="fill:url(#7k5vfs1awa)"/>
        <path data-name="Path 222" d="M19.671 0h16.72a20.654 20.654 0 0 1 20.654 20.654v7.868A28.523 28.523 0 0 1 0 28.523v-8.852A19.671 19.671 0 0 1 19.671 0z" transform="rotate(-90 214 44)" style="fill:url(#ama93ippvb)"/>
        <path data-name="Path 221" d="M16.953 0h14.41a17.8 17.8 0 0 1 17.8 17.8v6.781A24.582 24.582 0 0 1 0 24.582v-7.629A16.953 16.953 0 0 1 16.953 0z" transform="rotate(-90 214 44)" style="fill:url(#ama93ippvb)"/>
        <path data-name="Path 220" d="M13.938 0h11.847a14.634 14.634 0 0 1 14.634 14.634v5.575a20.21 20.21 0 0 1-40.419 0v-6.271A13.938 13.938 0 0 1 13.938 0z" transform="rotate(-90 214 44)" style="fill:url(#ama93ippvb)"/>
        <path data-name="Path 211" d="m6611.192 2708.134 14.248-4.982-13 12.519z" transform="translate(-6393.858 -2513.39)" style="fill:#e3dbff"/>
        <circle data-name="Ellipse 49" cx="2.139" cy="2.139" r="2.139" transform="translate(204.227 193.824)" style="fill:#fff"/>
    </g>
</svg>
