<svg xmlns="http://www.w3.org/2000/svg" width="9.329" height="13.719" viewBox="0 0 9.329 13.719">
    <path d="M14.232 2H7.1A1.1 1.1 0 0 0 6 3.1v11.522a1.1 1.1 0 0 0 1.1 1.1h7.134a1.1 1.1 0 0 0 1.1-1.1V3.1A1.1 1.1 0 0 0 14.232 2zm-6.311 8.232a.823.823 0 1 1-.824.823.823.823 0 0 1 .824-.823zM7.1 8.311a.823.823 0 1 1 .823.824.823.823 0 0 1-.823-.824zm3.567 6.311H7.921a.823.823 0 1 1 0-1.646h2.744a.823.823 0 0 1 0 1.646zm0-2.744a.823.823 0 1 1 .824-.823.823.823 0 0 1-.826.823zm0-2.744a.823.823 0 1 1 .824-.823.823.823 0 0 1-.826.823zm2.744 5.488a.823.823 0 1 1 .824-.823.823.823 0 0 1-.827.823zm0-2.744a.823.823 0 1 1 .824-.823.823.823 0 0 1-.827.823zm0-2.744a.823.823 0 1 1 .824-.823.823.823 0 0 1-.827.823zm.823-3.841a1.1 1.1 0 0 1-1.1 1.1H8.2a1.1 1.1 0 0 1-1.1-1.1V4.2a1.1 1.1 0 0 1 1.1-1.1h4.939a1.1 1.1 0 0 1 1.1 1.1z" transform="translate(-6 -2)" style="fill:#fff"/>
</svg>
