<svg xmlns="http://www.w3.org/2000/svg" width="11.439" height="9.151" viewBox="0 0 11.439 9.151">
    <path data-name="Layer 2" d="M10.532 5.144H9.77a1.144 1.144 0 0 0-2.288 0H5.957a1.144 1.144 0 1 0-2.288 0h-.763A1.909 1.909 0 0 0 1 7.05v4.194a1.909 1.909 0 0 0 1.906 1.906h7.626a1.909 1.909 0 0 0 1.906-1.906V7.05a1.909 1.909 0 0 0-1.906-1.906zm-2.288 0a.381.381 0 0 1 .763 0v1.525a.381.381 0 1 1-.763 0zm-3.813 0a.381.381 0 0 1 .763 0v1.525a.381.381 0 1 1-.763 0zm7.244 6.1a1.145 1.145 0 0 1-1.144 1.144H2.906a1.145 1.145 0 0 1-1.144-1.144V7.05a1.145 1.145 0 0 1 1.144-1.144h.763v.763a1.144 1.144 0 0 0 2.288 0v-.763h1.525v.763a1.144 1.144 0 0 0 2.288 0v-.763h.763a1.145 1.145 0 0 1 1.143 1.144zm-7.244 0H2.906a.381.381 0 0 1-.381-.381V9.338a.381.381 0 0 1 .381-.381h1.526a.381.381 0 0 1 .381.381v1.525a.381.381 0 0 1-.381.381zm-1.144-.763h.763v-.762h-.762zm4.194.763H5.957a.381.381 0 0 1-.381-.381V9.338a.381.381 0 0 1 .381-.381h1.525a.381.381 0 0 1 .381.381v1.525a.381.381 0 0 1-.381.381zm-1.144-.763H7.1v-.762h-.762zm4.194.763H9.007a.381.381 0 0 1-.381-.381V9.338a.381.381 0 0 1 .381-.381h1.525a.381.381 0 0 1 .381.381v1.525a.381.381 0 0 1-.381.381zm-1.144-.763h.763v-.762h-.762z" transform="translate(-1 -4)" style="fill:#9e9e9e"/>
</svg>
