<svg data-name="5af3ef82a967089394e6c9a24ba621f6" xmlns="http://www.w3.org/2000/svg" width="30" height="20" viewBox="0 0 30 20">
    <path data-name="Rectangle 1507" d="M0 0h30v20H0z"/>
    <path data-name="Rectangle 1508" transform="translate(1 1)" style="fill:#b22234" d="M0 0h28v1.385H0z"/>
    <path data-name="Rectangle 1509" transform="translate(1 2.385)" style="fill:#fff" d="M0 0h28v1.385H0z"/>
    <path data-name="Rectangle 1510" transform="translate(1 3.77)" style="fill:#b22234" d="M0 0h28v1.385H0z"/>
    <path data-name="Rectangle 1511" transform="translate(1 5.155)" style="fill:#fff" d="M0 0h28v1.385H0z"/>
    <path data-name="Rectangle 1512" transform="translate(1 6.54)" style="fill:#b22234" d="M0 0h28v1.385H0z"/>
    <path data-name="Rectangle 1513" transform="translate(1 7.925)" style="fill:#fff" d="M0 0h28v1.385H0z"/>
    <path data-name="Rectangle 1514" transform="translate(1 9.31)" style="fill:#b22234" d="M0 0h28v1.385H0z"/>
    <path data-name="Rectangle 1515" transform="translate(1 10.695)" style="fill:#fff" d="M0 0h28v1.385H0z"/>
    <path data-name="Rectangle 1516" transform="translate(1 12.08)" style="fill:#b22234" d="M0 0h28v1.385H0z"/>
    <path data-name="Rectangle 1517" transform="translate(1 13.465)" style="fill:#fff" d="M0 0h28v1.385H0z"/>
    <path data-name="Rectangle 1518" transform="translate(1 14.85)" style="fill:#b22234" d="M0 0h28v1.385H0z"/>
    <path data-name="Rectangle 1519" transform="translate(1 16.235)" style="fill:#fff" d="M0 0h28v1.385H0z"/>
    <path data-name="Rectangle 1520" transform="translate(1 1)" style="fill:#3c3b6e" d="M0 0h14v9.695H0z"/>
    <path data-name="Path 366" d="m2.5 2.488-.325.235.125-.382-.326-.241h.4l.126-.377.125.376h.4l-.325.242.123.382z" style="fill:#fff"/>
    <path data-name="Path 367" d="m4.7 2.488-.325.235.125-.382-.326-.241h.4l.126-.377.125.376h.4l-.325.242.123.382z" style="fill:#fff"/>
    <path data-name="Path 368" d="m6.9 2.488-.325.235.125-.382-.326-.241h.4l.126-.377.125.376h.4l-.325.242.123.382z" style="fill:#fff"/>
    <path data-name="Path 369" d="m9.1 2.488-.325.235.125-.382-.326-.241h.4l.126-.377.125.376h.4l-.325.242.123.382z" style="fill:#fff"/>
    <path data-name="Path 370" d="m11.3 2.488-.325.235.123-.382-.324-.241h.4l.125-.376.125.376h.4l-.324.242.123.382z" style="fill:#fff"/>
    <path data-name="Path 371" d="m13.5 2.488-.325.235.123-.382-.324-.241h.4l.125-.376.125.376h.4l-.324.242.123.382z" style="fill:#fff"/>
    <path data-name="Path 372" d="m3.6 3.7-.325.234.125-.384-.324-.243h.4l.124-.376.125.376h.4L3.8 3.55l.123.381z" style="fill:#fff"/>
    <path data-name="Path 373" d="m5.8 3.7-.325.234.125-.384-.324-.243h.4l.124-.376.125.376h.4L6 3.55l.123.381z" style="fill:#fff"/>
    <path data-name="Path 374" d="m8 3.7-.325.234.125-.384-.324-.243h.4L8 2.931l.125.376h.4L8.2 3.55l.123.381z" style="fill:#fff"/>
    <path data-name="Path 375" d="m10.2 3.7-.325.234L10 3.55l-.324-.243h.4l.125-.376.125.376h.4l-.326.243.123.381z" style="fill:#fff"/>
    <path data-name="Path 376" d="m12.4 3.7-.325.234.125-.384-.324-.243h.4l.125-.376.125.376h.4l-.326.243.123.381z" style="fill:#fff"/>
    <g data-name="Group 930">
        <path data-name="Path 377" d="m2.5 4.905-.325.235.125-.382-.324-.243h.4L2.5 4.14l.125.375h.4l-.325.243.123.382z" style="fill:#fff"/>
        <path data-name="Path 378" d="m4.7 4.905-.325.235.125-.382-.324-.243h.4L4.7 4.14l.125.375h.4l-.325.243.123.382z" style="fill:#fff"/>
        <path data-name="Path 379" d="m6.9 4.905-.325.235.125-.382-.324-.243h.4L6.9 4.14l.125.375h.4l-.325.243.123.382z" style="fill:#fff"/>
        <path data-name="Path 380" d="m9.1 4.905-.325.235.125-.382-.324-.243h.4L9.1 4.14l.125.375h.4l-.325.243.123.382z" style="fill:#fff"/>
        <path data-name="Path 381" d="m11.3 4.905-.325.235.123-.382-.324-.243h.4l.126-.375.125.375h.4l-.324.243.123.382z" style="fill:#fff"/>
        <path data-name="Path 382" d="m13.5 4.905-.325.235.123-.382-.324-.243h.4l.126-.375.125.375h.4l-.324.243.123.382z" style="fill:#fff"/>
    </g>
    <g data-name="Group 931">
        <path data-name="Path 383" d="m3.6 6.113-.325.235.125-.382-.324-.242h.4l.124-.376.125.376h.4l-.325.242.123.382z" style="fill:#fff"/>
        <path data-name="Path 384" d="m5.8 6.113-.325.235.125-.382-.324-.242h.4l.124-.376.125.376h.4L6 5.966l.123.382z" style="fill:#fff"/>
        <path data-name="Path 385" d="m8 6.113-.325.235.125-.382-.324-.242h.4L8 5.348l.125.376h.4l-.325.242.123.382z" style="fill:#fff"/>
        <path data-name="Path 386" d="m10.2 6.113-.325.235.125-.382-.324-.242h.4l.125-.376.125.376h.4l-.324.242.123.382z" style="fill:#fff"/>
        <path data-name="Path 387" d="m12.4 6.113-.325.235.123-.382-.324-.242h.4l.125-.376.125.376h.4l-.324.242.123.382z" style="fill:#fff"/>
    </g>
    <g data-name="Group 932">
        <path data-name="Path 388" d="m2.5 7.322-.325.234.125-.381-.324-.243h.4l.124-.376.125.376h.4l-.325.243.123.381z" style="fill:#fff"/>
        <path data-name="Path 389" d="m4.7 7.322-.325.234.125-.381-.324-.243h.4l.124-.376.125.376h.4l-.325.243.123.381z" style="fill:#fff"/>
        <path data-name="Path 390" d="m6.9 7.322-.325.234.125-.381-.324-.243h.4l.124-.376.125.376h.4l-.325.243.123.381z" style="fill:#fff"/>
        <path data-name="Path 391" d="m9.1 7.322-.325.234.125-.381-.324-.243h.4l.124-.376.125.376h.4l-.325.243.123.381z" style="fill:#fff"/>
        <path data-name="Path 392" d="m11.3 7.322-.325.234.123-.381-.324-.243h.4l.125-.376.125.376h.4l-.324.243.123.381z" style="fill:#fff"/>
        <path data-name="Path 393" d="m13.5 7.322-.325.234.123-.381-.324-.243h.4l.125-.376.125.376h.4l-.324.243.123.381z" style="fill:#fff"/>
    </g>
    <g data-name="Group 933">
        <path data-name="Path 394" d="m2.5 9.738-.325.235.125-.382-.324-.242h.4l.124-.376.125.376h.4l-.325.242.123.382z" style="fill:#fff"/>
        <path data-name="Path 395" d="m4.7 9.738-.325.235.125-.382-.324-.242h.4l.124-.376.125.376h.4l-.325.242.123.382z" style="fill:#fff"/>
        <path data-name="Path 396" d="m6.9 9.738-.325.235.125-.382-.324-.242h.4l.124-.376.125.376h.4l-.325.242.123.382z" style="fill:#fff"/>
        <path data-name="Path 397" d="m9.1 9.738-.325.235.125-.382-.324-.242h.4l.124-.376.125.376h.4l-.325.242.123.382z" style="fill:#fff"/>
        <path data-name="Path 398" d="m11.3 9.738-.325.235.123-.382-.324-.242h.4l.125-.376.125.376h.4l-.324.242.123.382z" style="fill:#fff"/>
        <path data-name="Path 399" d="m13.5 9.738-.325.235.123-.382-.324-.242h.4l.125-.376.125.376h.4l-.324.242.123.382z" style="fill:#fff"/>
    </g>
    <g data-name="Group 934">
        <path data-name="Path 400" d="m3.6 8.53-.325.235.125-.382-.326-.243h.4l.126-.375.125.375h.4l-.325.243.123.382z" style="fill:#fff"/>
        <path data-name="Path 401" d="m5.8 8.53-.325.235.125-.382-.326-.243h.4l.126-.375.125.375h.4L6 8.383l.123.382z" style="fill:#fff"/>
        <path data-name="Path 402" d="m8 8.53-.325.235.125-.382-.326-.243h.4L8 7.765l.125.375h.4l-.325.243.123.382z" style="fill:#fff"/>
        <path data-name="Path 403" d="m10.2 8.53-.325.235.125-.382-.326-.243h.4l.125-.375.125.375h.4l-.324.243.123.382z" style="fill:#fff"/>
        <path data-name="Path 404" d="m12.4 8.53-.325.235.123-.382-.324-.243h.4l.125-.375.125.375h.4l-.324.243.123.382z" style="fill:#fff"/>
    </g>
    <path data-name="Rectangle 1521" transform="translate(1 17.62)" style="fill:#b22234" d="M0 0h28v1.38H0z"/>
</svg>
