<svg xmlns="http://www.w3.org/2000/svg" width="17" height="17" viewBox="0 0 17 17">
    <g data-name="4539fd9e3eb28ae1c7c5ad8464cd5f7c" transform="translate(-3 -3)">
        <circle data-name="Ellipse 74" cx="4.5" cy="4.5" r="4.5" transform="translate(3 3)" style="fill:#f99f10"/>
        <path data-name="Path 355" d="M3 7.468a4.453 4.453 0 0 0 1.309 3.16l6.319-6.319A4.468 4.468 0 0 0 3 7.468z" style="fill:#f9c900"/>
        <circle data-name="Ellipse 75" cx="4.5" cy="4.5" r="4.5" transform="translate(11 11)" style="fill:#f99f10"/>
        <path data-name="Path 356" d="M23 27.468a4.453 4.453 0 0 0 1.309 3.16l6.319-6.319A4.468 4.468 0 0 0 23 27.468z" transform="translate(-11.876 -11.876)" style="fill:#f9c900"/>
        <path data-name="Path 357" d="M11.437 7.693V5.687a1.046 1.046 0 0 1 .812.953.406.406 0 0 0 .812 0 1.891 1.891 0 0 0-1.625-1.791v-.443a.406.406 0 1 0-.812 0v.443A1.891 1.891 0 0 0 9 6.64a1.891 1.891 0 0 0 1.625 1.791v2.005a1.046 1.046 0 0 1-.812-.953.406.406 0 0 0-.812 0 1.891 1.891 0 0 0 1.625 1.791v.443a.406.406 0 1 0 .812 0v-.443a1.891 1.891 0 0 0 1.625-1.791 1.891 1.891 0 0 0-1.626-1.79zm-.812-.1a1.046 1.046 0 0 1-.812-.953 1.046 1.046 0 0 1 .812-.953zm.812 2.843V8.53a1.046 1.046 0 0 1 .812.953 1.046 1.046 0 0 1-.812.954zm10.009 3a.406.406 0 0 1 .052.572l-1.814 2.177h1.1a.406.406 0 1 1 0 .812h-1.222v.403h1.218a.406.406 0 0 1 0 .812h-1.218v1.219a.406.406 0 0 1-.812 0v-1.214h-1.22a.406.406 0 0 1 0-.812h1.219V17H17.53a.406.406 0 0 1 0-.812h1.1l-1.815-2.177a.406.406 0 0 1 .624-.52l1.719 2.063 1.719-2.063a.406.406 0 0 1 .569-.054z" transform="translate(-3.563 -.594)" style="fill:#828282"/>
        <path data-name="Path 358" d="M6.447 29.4c-.006.079-.01.154-.01.228a3.253 3.253 0 0 0 3.25 3.25.406.406 0 1 1 0 .812 4.067 4.067 0 0 1-4.062-4.062c0-.081 0-.164.011-.249l-.942.942a.406.406 0 0 1-.574-.574l1.625-1.625a.406.406 0 0 1 .574 0l1.625 1.625a.406.406 0 0 1-.574.574z" transform="translate(-.594 -14.845)" style="fill:#4588b5"/>
        <path data-name="Path 359" d="M32.646 10.29c.007-.079.01-.154.01-.228a3.253 3.253 0 0 0-3.25-3.25.406.406 0 0 1 0-.812 4.067 4.067 0 0 1 4.062 4.062c0 .081 0 .164-.011.249l.942-.942a.406.406 0 1 1 .574.574l-1.625 1.625a.406.406 0 0 1-.574 0L31.15 9.943a.406.406 0 0 1 .574-.574z" transform="translate(-15.438 -1.781)" style="fill:#fc5696"/>
    </g>
</svg>
