<svg xmlns="http://www.w3.org/2000/svg" width="18.876" height="14.44" viewBox="0 0 18.876 14.44">
    <g data-name="03ac56df0755426ecadc842625ca0f41">
        <path data-name="Path 341" d="M7.292 23.766H1l.729-2.914a.9.9 0 0 1 .872-.681h3.09a.9.9 0 0 1 .872.681zm6.292 0H7.292l.729-2.914a.9.9 0 0 1 .872-.681h3.091a.9.9 0 0 1 .872.681zm6.292 0h-6.292l.729-2.914a.9.9 0 0 1 .872-.681h3.091a.9.9 0 0 1 .872.681zm-9.438-3.6H4.146l.729-2.914a.9.9 0 0 1 .872-.681h3.09a.9.9 0 0 1 .872.681zm6.292 0h-6.292l.729-2.914a.9.9 0 0 1 .872-.681h3.091a.9.9 0 0 1 .872.681z" transform="translate(-1 -9.326)" style="fill:#ffcc5c"/>
        <path data-name="Path 342" d="M17.292 14.456H11l.729-2.914a.9.9 0 0 1 .872-.681h3.091a.9.9 0 0 1 .872.681z" transform="translate(-4.708 -7.207)" style="fill:#ffcc5c"/>
        <path data-name="Path 343" d="M6.563 20.852a.9.9 0 0 0-.872-.681h-.645l.282 1.129a1.258 1.258 0 0 1-1.221 1.564H1.226l-.226.9h6.292zm6.292 0a.9.9 0 0 0-.872-.681h-.646l.283 1.129a1.258 1.258 0 0 1-1.22 1.565H7.518l-.226.9h6.292zm6.292 0a.9.9 0 0 0-.872-.681h-.645l.283 1.131a1.258 1.258 0 0 1-1.221 1.564H13.81l-.226.9h6.292zm-9.438-3.6a.9.9 0 0 0-.872-.681h-.645l.283 1.131a1.258 1.258 0 0 1-1.221 1.564H4.372l-.226.9h6.292zm6.292 0a.9.9 0 0 0-.872-.681h-.646l.283 1.131a1.258 1.258 0 0 1-1.221 1.564h-2.881l-.226.9h6.292z" transform="translate(-1 -9.326)" style="fill:#f7b546"/>
        <path data-name="Path 344" d="M16.563 11.542a.9.9 0 0 0-.872-.681h-.646l.283 1.131a1.258 1.258 0 0 1-1.221 1.564h-2.881l-.226.9h6.292z" transform="translate(-4.708 -7.207)" style="fill:#f7b546"/>
        <path data-name="Path 345" d="m19.51 7.193 1.007-.252-1.007-.251-.252-1.007-.251 1.007L18 6.942l1.007.252.251 1.006zm2.454 1.2.755-.189-.755-.189-.189-.755-.189.755-.755.189.755.189.189.755zm-.378-2.58.5-.126-.5-.126-.126-.5-.126.5-.5.126.5.126.126.5z" transform="translate(-7.304 -5.054)" style="fill:#ffcc5c"/>
    </g>
</svg>
