<svg xmlns="http://www.w3.org/2000/svg" width="15.595" height="20.001" viewBox="0 0 15.595 20.001">
    <g data-name="23b4d671c94a8052de205d937e109182">
        <path data-name="Path 346" d="M23.138 2.181v16.814a1.267 1.267 0 0 1-1.281 1.281H9.481A1.267 1.267 0 0 1 8.2 18.995V2.181A1.267 1.267 0 0 1 9.481.9h12.407a1.261 1.261 0 0 1 1.25 1.281z" transform="translate(-7.856 -.619)" style="fill:#fff"/>
        <path data-name="Path 347" d="M21.069 20H8.694A1.6 1.6 0 0 1 7.1 18.407V1.594A1.6 1.6 0 0 1 8.694 0H21.1a1.6 1.6 0 0 1 1.594 1.594v16.813A1.649 1.649 0 0 1 21.069 20zM8.694.625a.974.974 0 0 0-.969.969v16.813a.974.974 0 0 0 .969.969H21.1a.974.974 0 0 0 .969-.969V1.594A.974.974 0 0 0 21.1.625z" transform="translate(-7.1)" style="fill:#33226e"/>
        <path data-name="Path 348" d="M24.726 6.006v3.407a.414.414 0 0 1-.406.406H13.006a.414.414 0 0 1-.406-.406V6.006a.414.414 0 0 1 .406-.406h11.313a.414.414 0 0 1 .407.406z" transform="translate(-10.881 -3.85)" style="fill:#4de2c9"/>
        <path data-name="Path 349" d="M23.632 9.413H12.319a.707.707 0 0 1-.719-.719V5.319a.707.707 0 0 1 .719-.719h11.313a.707.707 0 0 1 .719.719v3.406a.721.721 0 0 1-.719.688zM12.319 5.225a.1.1 0 0 0-.094.094v3.406a.1.1 0 0 0 .094.094h11.313a.1.1 0 0 0 .094-.094V5.319a.1.1 0 0 0-.094-.094z" transform="translate(-10.194 -3.162)" style="fill:#33226e"/>
        <g data-name="Group 899">
            <path data-name="Path 350" d="M20.194 32.132v2a.347.347 0 0 1-.344.344h-2.406a.347.347 0 0 1-.344-.344v-2a.347.347 0 0 1 .344-.344h2.406c.219.031.344.156.344.344zm-4.5-4.094v2a.347.347 0 0 1-.344.344h-2.406a.347.347 0 0 1-.344-.344v-2a.347.347 0 0 1 .344-.344h2.406a.347.347 0 0 1 .344.344zm4.5-4.094v2a.347.347 0 0 1-.344.344h-2.406a.347.347 0 0 1-.344-.344v-2a.347.347 0 0 1 .344-.344h2.406a.328.328 0 0 1 .344.344z" transform="translate(-10.881 -16.224)" style="fill:#fff"/>
            <path data-name="Path 351" d="M44.594 23.944v2a.347.347 0 0 1-.344.344h-2.406a.347.347 0 0 1-.344-.344v-2a.347.347 0 0 1 .344-.344h2.406a.347.347 0 0 1 .344.344z" transform="translate(-30.75 -16.224)" style="fill:#ffcd7e"/>
            <path data-name="Path 352" d="M15.694 23.944v2a.347.347 0 0 1-.344.344h-2.406a.347.347 0 0 1-.344-.344v-2a.347.347 0 0 1 .344-.344h2.406a.347.347 0 0 1 .344.344zm0 8.188v2a.347.347 0 0 1-.344.344h-2.406a.347.347 0 0 1-.344-.344v-2a.347.347 0 0 1 .344-.344h2.406a.369.369 0 0 1 .344.344zm4.5-4.094v2a.347.347 0 0 1-.344.344h-2.406a.347.347 0 0 1-.344-.344v-2a.347.347 0 0 1 .344-.344h2.406a.328.328 0 0 1 .344.344z" transform="translate(-10.881 -16.224)" style="fill:#fff"/>
            <path data-name="Path 353" d="M44.594 37.044v6.094a.347.347 0 0 1-.344.344h-2.406a.347.347 0 0 1-.344-.344v-6.094a.347.347 0 0 1 .344-.344h2.406a.347.347 0 0 1 .344.344z" transform="translate(-30.75 -25.231)" style="fill:#ff787d"/>
            <path data-name="Path 354" d="M14.663 22.6h-2.407a.66.66 0 0 0-.656.656v2a.66.66 0 0 0 .656.656h2.406a.66.66 0 0 0 .656-.656v-2a.641.641 0 0 0-.655-.656zm0 2.688h-2.407l-.031-2.031 2.438-.031v2.063zm4.531 5.532h-2.406a.66.66 0 0 0-.656.656v2a.66.66 0 0 0 .656.656h2.406a.66.66 0 0 0 .656-.656v-2a.681.681 0 0 0-.656-.657zm0 2.656h-2.406l-.031-2.031 2.438-.031v2.063zm-4.531-2.656h-2.407a.66.66 0 0 0-.656.656v2a.66.66 0 0 0 .656.656h2.406a.66.66 0 0 0 .656-.656v-2a.641.641 0 0 0-.655-.657zm0 2.656h-2.407l-.031-2.031 2.438-.031v2.063zm4.531-6.782h-2.406a.66.66 0 0 0-.656.656v2a.66.66 0 0 0 .656.656h2.406a.66.66 0 0 0 .656-.656v-2a.706.706 0 0 0-.656-.656zm0 2.688h-2.406l-.031-2.031 2.438-.031v2.063zm-4.531-2.688h-2.407a.66.66 0 0 0-.656.656v2a.66.66 0 0 0 .656.656h2.406a.66.66 0 0 0 .656-.656v-2a.66.66 0 0 0-.655-.656zm0 2.688h-2.407l-.031-2.031 2.438-.031v2.063zm9.031-6.782h-2.406a.66.66 0 0 0-.656.656v2a.66.66 0 0 0 .656.656h2.406a.66.66 0 0 0 .656-.656v-2a.66.66 0 0 0-.656-.656zm0 2.688h-2.406l-.031-2.031 2.438-.031v2.063zm-4.5-2.688h-2.406a.66.66 0 0 0-.656.656v2a.66.66 0 0 0 .656.656h2.406a.66.66 0 0 0 .656-.656v-2a.681.681 0 0 0-.656-.656zm0 2.688h-2.406l-.031-2.031 2.438-.031v2.063zm4.5 1.406h-2.406a.66.66 0 0 0-.656.656v6.094a.66.66 0 0 0 .656.656h2.406a.66.66 0 0 0 .656-.656V27.35a.682.682 0 0 0-.656-.656zm0 6.782h-2.406l-.031-6.125 2.438-.031v6.157z" transform="translate(-10.194 -15.537)" style="fill:#33226e"/>
        </g>
    </g>
</svg>
